FFmpeg version SVN-r25716, Copyright (c) 2000-2010 the FFmpeg developers  built on Nov 10 2010 12:23:18 with gcc 4.1.2 20080704 (Red Hat 4.1.2-48)  configuration: --enable-libmp3lame --enable-shared --disable-mmx --arch=x86_64  libavutil     50.33. 0 / 50.33. 0  libavcore      0.12. 1 /  0.12. 1  libavcodec    52.94. 4 / 52.94. 4  libavformat   52.84. 0 / 52.84. 0  libavdevice   52. 2. 2 / 52. 2. 2  libavfilter    1.59. 0 /  1.59. 0  libswscale     0.12. 0 /  0.12. 0Input #0, avi, from '/RAID10/data/converted_video_files/47563.avi':  Duration: 00:00:06.96, start: 0.000000, bitrate: 31563 kb/s    Stream #0.0: Video: msvideo1, rgb555le, 1024x1024, 30 tbr, 30 tbn, 30 tbc[buffer @ 0xb9b6510] w:1024 h:1024 pixfmt:rgb555le[ffsink @ 0xb9d3de0] auto-inserting filter 'auto-inserted scaler 0' between the filter 'src' and the filter 'out'[scale @ 0xb9d4100] w:1024 h:1024 fmt:rgb555le -> w:1024 h:1024 fmt:yuv420p flags:0x4Output #0, flv, to '/RAID10/data/converted_video_files/47563.flv':  Metadata:    encoder         : Lavf52.84.0    Stream #0.0: Video: flv, yuv420p, 1024x1024, q=2-31, 600 kb/s, 1k tbn, 24 tbcStream mapping:  Stream #0.0 -> #0.0Press [q] to stop encodingframe=    6 fps=  0 q=6.8 size=     529kB time=0.25 bitrate=17318.7kbits/s dup=0 drop=1    frame=   14 fps= 13 q=27.1 size=     610kB time=0.58 bitrate=8571.5kbits/s dup=0 drop=3    frame=   23 fps= 14 q=31.0 size=     627kB time=0.96 bitrate=5360.4kbits/s dup=0 drop=6    frame=   33 fps= 15 q=31.0 size=     671kB time=1.38 bitrate=3999.7kbits/s dup=0 drop=8    frame=   42 fps= 15 q=31.0 size=     721kB time=1.75 bitrate=3376.2kbits/s dup=0 drop=10    frame=   49 fps= 15 q=24.8 size=     758kB time=2.04 bitrate=3040.0kbits/s dup=0 drop=12    frame=   55 fps= 15 q=31.0 size=     768kB time=2.29 bitrate=2744.1kbits/s dup=0 drop=13    frame=   64 fps= 15 q=31.0 size=     809kB time=2.67 bitrate=2485.0kbits/s dup=0 drop=15    frame=   74 fps= 15 q=31.0 size=     850kB time=3.08 bitrate=2258.0kbits/s dup=0 drop=18    frame=   83 fps= 16 q=31.0 size=     863kB time=3.46 bitrate=2044.1kbits/s dup=0 drop=20    frame=   92 fps= 16 q=31.0 size=     904kB time=3.83 bitrate=1931.2kbits/s dup=0 drop=23    frame=  100 fps= 16 q=31.0 size=     940kB time=4.17 bitrate=1848.9kbits/s dup=0 drop=25    frame=  108 fps= 16 q=31.0 size=     950kB time=4.50 bitrate=1730.1kbits/s dup=0 drop=27    frame=  118 fps= 16 q=31.0 size=     994kB time=4.92 bitrate=1656.3kbits/s dup=0 drop=29    frame=  128 fps= 16 q=31.0 size=    1041kB time=5.33 bitrate=1599.1kbits/s dup=0 drop=31    frame=  138 fps= 16 q=31.0 size=    1080kB time=5.75 bitrate=1538.5kbits/s dup=0 drop=34    frame=  148 fps= 16 q=31.0 size=    1120kB time=6.17 bitrate=1488.0kbits/s dup=0 drop=36    frame=  157 fps= 17 q=24.8 size=    1158kB time=6.54 bitrate=1449.8kbits/s dup=0 drop=39    frame=  167 fps= 17 q=31.0 size=    1170kB time=6.96 bitrate=1377.0kbits/s dup=0 drop=41    frame=  167 fps= 17 q=31.0 Lsize=    1170kB time=6.96 bitrate=1377.0kbits/s dup=0 drop=42    video:1167kB audio:0kB global headers:0kB muxing overhead 0.241222%